<svg width="85" height="85" fill="none" xmlns="http://www.w3.org/2000/svg"><path fill-rule="evenodd" clip-rule="evenodd" d="M42.972 84.055C66.183 84.055 85 65.24 85 42.028 85 18.817 66.183 0 42.972 0S.944 18.817.944 42.028s18.817 42.027 42.028 42.027ZM23.805 27.063a6.304 6.304 0 0 1 4.457-1.846h29.42a6.304 6.304 0 0 1 6.304 6.304v21.014a6.304 6.304 0 0 1-6.304 6.304h-29.42a6.304 6.304 0 0 1-6.304-6.304V31.52c0-1.672.665-3.276 1.847-4.458Zm20.66 14.713L56.82 29.419H29.124L41.48 41.776a2.101 2.101 0 0 0 2.984 0ZM59.167 54.02c.394-.395.615-.929.615-1.486V32.382L47.427 44.74a6.304 6.304 0 0 1-8.91 0L26.161 32.382v20.153a2.101 2.101 0 0 0 2.101 2.101h29.42c.557 0 1.092-.221 1.486-.615Z" fill="#FFBF40"/></svg>